<svg width="60" height="60" viewBox="0 0 60 60" fill="none" xmlns="http://www.w3.org/2000/svg">
<path d="M20.625 39.375H16.875V35.625C16.8765 34.1336 17.4696 32.7037 18.5242 31.6492C19.5787 30.5946 21.0086 30.0015 22.5 30H33.75V33.75H22.5C22.0029 33.7505 21.5262 33.9482 21.1747 34.2997C20.8232 34.6513 20.6255 35.1279 20.625 35.625V39.375ZM28.125 28.125C26.6416 28.125 25.1916 27.6851 23.9582 26.861C22.7249 26.0369 21.7636 24.8656 21.1959 23.4951C20.6282 22.1247 20.4797 20.6167 20.7691 19.1618C21.0585 17.707 21.7728 16.3706 22.8217 15.3217C23.8706 14.2728 25.207 13.5585 26.6618 13.2691C28.1167 12.9797 29.6247 13.1282 30.9951 13.6959C32.3656 14.2636 33.5369 15.2249 34.361 16.4582C35.1851 17.6916 35.625 19.1416 35.625 20.625C35.6225 22.6134 34.8315 24.5196 33.4256 25.9256C32.0196 27.3315 30.1134 28.1225 28.125 28.125ZM28.125 16.875C27.3833 16.875 26.6583 17.0949 26.0416 17.507C25.4249 17.919 24.9443 18.5047 24.6605 19.1899C24.3766 19.8752 24.3024 20.6292 24.4471 21.3566C24.5917 22.084 24.9489 22.7522 25.4734 23.2767C25.9978 23.8011 26.666 24.1583 27.3934 24.3029C28.1208 24.4476 28.8748 24.3734 29.5601 24.0896C30.2453 23.8057 30.831 23.3251 31.243 22.7084C31.6551 22.0917 31.875 21.3667 31.875 20.625C31.874 19.6307 31.4786 18.6775 30.7756 17.9744C30.0725 17.2714 29.1193 16.876 28.125 16.875ZM45 41.25C43.5166 41.25 42.0666 40.8101 40.8332 39.986C39.5999 39.1619 38.6386 37.9906 38.0709 36.6201C37.5032 35.2497 37.3547 33.7417 37.6441 32.2868C37.9335 30.832 38.6478 29.4956 39.6967 28.4467C40.7456 27.3978 42.082 26.6835 43.5368 26.3941C44.9917 26.1047 46.4997 26.2532 47.8701 26.8209C49.2406 27.3886 50.4119 28.3499 51.236 29.5832C52.0601 30.8166 52.5 32.2666 52.5 33.75C52.4975 35.7384 51.7065 37.6446 50.3006 39.0506C48.8946 40.4565 46.9884 41.2475 45 41.25ZM45 30C44.2583 30 43.5333 30.2199 42.9166 30.632C42.2999 31.044 41.8193 31.6297 41.5355 32.3149C41.2516 33.0002 41.1774 33.7542 41.3221 34.4816C41.4668 35.209 41.8239 35.8772 42.3484 36.4017C42.8728 36.9261 43.541 37.2833 44.2684 37.4279C44.9958 37.5726 45.7498 37.4984 46.4351 37.2146C47.1203 36.9307 47.706 36.4501 48.118 35.8334C48.5301 35.2167 48.75 34.4917 48.75 33.75C48.749 32.7557 48.3536 31.8025 47.6506 31.0994C46.9475 30.3964 45.9943 30.001 45 30ZM56.25 52.5H52.5V48.75C52.4995 48.2529 52.3018 47.7763 51.9503 47.4247C51.5988 47.0732 51.1221 46.8755 50.625 46.875H39.375C38.8779 46.8755 38.4012 47.0732 38.0497 47.4247C37.6982 47.7763 37.5005 48.2529 37.5 48.75V52.5H33.75V48.75C33.7515 47.2586 34.3446 45.8287 35.3992 44.7742C36.4537 43.7196 37.8836 43.1265 39.375 43.125H50.625C52.1164 43.1265 53.5463 43.7196 54.6008 44.7742C55.6554 45.8287 56.2485 47.2586 56.25 48.75V52.5Z" fill="#FF445B"/>
<path d="M26.25 51.9994L16.4363 46.7681C13.7348 45.3311 11.4756 43.1856 9.90123 40.5618C8.32687 37.9379 7.49677 34.9349 7.50001 31.875V7.5H45V18.75H48.75V7.5C48.749 6.50574 48.3536 5.55249 47.6506 4.84945C46.9475 4.1464 45.9943 3.75099 45 3.75H7.50001C6.50576 3.75099 5.55251 4.1464 4.84946 4.84945C4.14641 5.55249 3.75101 6.50574 3.75001 7.5V31.875C3.74583 35.6144 4.76011 39.2843 6.68397 42.4909C8.60783 45.6974 11.3686 48.3195 14.67 50.0756L26.25 56.25V51.9994Z" fill="#FFB132"/>
</svg>
