<svg width="32" height="24" viewBox="0 0 32 24" fill="none" xmlns="http://www.w3.org/2000/svg">
<path d="M27.0892 1.99054C25.0492 1.07057 22.8626 0.390589 20.576 0.00393344C20.5557 2.41084e-05 20.5346 0.00254342 20.5157 0.011143C20.4969 0.0197426 20.4811 0.033997 20.4707 0.0519321C20.1907 0.543918 19.8787 1.18523 19.6601 1.69188C17.2349 1.32954 14.7694 1.32954 12.3443 1.69188C12.1007 1.13038 11.8261 0.582882 11.5216 0.0519321C11.5113 0.0337762 11.4957 0.0191993 11.4769 0.0101468C11.4581 0.00109419 11.4369 -0.0020037 11.4163 0.00126673C9.13104 0.387922 6.94444 1.0679 4.90317 1.98921C4.8856 1.99658 4.87072 2.00914 4.8605 2.02521C0.711287 8.12503 -0.426013 14.0742 0.132637 19.9487C0.134192 19.9631 0.138658 19.977 0.145763 19.9896C0.152869 20.0022 0.162465 20.0132 0.173969 20.022C2.59576 21.7852 5.29694 23.1284 8.1644 23.9952C8.18439 24.0014 8.20577 24.0014 8.22575 23.9952C8.24573 23.989 8.26338 23.9769 8.2764 23.9606C8.89344 23.1354 9.44023 22.2599 9.91102 21.3433C9.91755 21.3308 9.92132 21.317 9.92206 21.3029C9.92281 21.2888 9.92051 21.2747 9.91532 21.2615C9.91014 21.2484 9.90219 21.2365 9.89202 21.2267C9.88185 21.2169 9.86968 21.2094 9.85636 21.2047C8.99505 20.8803 8.16052 20.4889 7.36043 20.034C7.34605 20.0258 7.33394 20.0142 7.32517 20.0001C7.31641 19.9861 7.31126 19.9701 7.31021 19.9536C7.30915 19.937 7.31221 19.9205 7.31911 19.9055C7.32602 19.8904 7.33655 19.8773 7.34976 19.8674C7.51776 19.7434 7.68575 19.614 7.84575 19.4847C7.86015 19.4731 7.8775 19.4657 7.89586 19.4633C7.91422 19.461 7.93287 19.4637 7.94974 19.4714C13.1856 21.8233 18.8561 21.8233 24.0306 19.4714C24.0475 19.4633 24.0664 19.4601 24.085 19.4623C24.1036 19.4644 24.1213 19.4717 24.1359 19.4834C24.2959 19.614 24.4626 19.7434 24.6319 19.8674C24.6453 19.8771 24.656 19.89 24.6631 19.905C24.6702 19.9199 24.6735 19.9363 24.6727 19.9528C24.6719 19.9694 24.6671 19.9854 24.6586 19.9996C24.65 20.0137 24.6381 20.0256 24.6239 20.034C23.8266 20.4927 22.9973 20.8807 22.1267 21.2033C22.1133 21.2082 22.1011 21.2158 22.0909 21.2258C22.0808 21.2357 22.0728 21.2477 22.0676 21.2609C22.0625 21.2742 22.0602 21.2884 22.0609 21.3026C22.0617 21.3168 22.0655 21.3307 22.072 21.3433C22.552 22.2593 23.1013 23.1313 23.7053 23.9592C23.7178 23.9762 23.7353 23.9889 23.7554 23.9956C23.7754 24.0023 23.797 24.0026 23.8173 23.9966C26.6897 23.1321 29.3953 21.7883 31.8197 20.022C31.8315 20.0138 31.8415 20.003 31.8488 19.9906C31.8562 19.9782 31.8608 19.9644 31.8624 19.95C32.529 13.1582 30.7451 7.25706 27.1305 2.02787C27.1217 2.01088 27.107 1.99763 27.0892 1.99054ZM10.6937 16.3715C9.11771 16.3715 7.81775 14.9462 7.81775 13.1982C7.81775 11.4489 9.09238 10.025 10.6937 10.025C12.307 10.025 13.5949 11.4609 13.5696 13.1982C13.5696 14.9475 12.295 16.3715 10.6937 16.3715ZM21.3267 16.3715C19.7494 16.3715 18.4508 14.9462 18.4508 13.1982C18.4508 11.4489 19.7241 10.025 21.3267 10.025C22.94 10.025 24.2279 11.4609 24.2026 13.1982C24.2026 14.9475 22.9413 16.3715 21.3267 16.3715Z" fill="#14213D"/>
</svg>
