<svg width="120" height="34" viewBox="0 0 120 34" fill="none" xmlns="http://www.w3.org/2000/svg">
<path d="M16.6124 33.2117C25.7872 33.2117 33.2249 25.777 33.2249 16.6058C33.2249 7.43468 25.7872 0 16.6124 0C7.43763 0 0 7.43468 0 16.6058C0 25.777 7.43763 33.2117 16.6124 33.2117Z" fill="#1360A5"/>
<g filter="url(#filter0_i_177_198)">
<path fill-rule="evenodd" clip-rule="evenodd" d="M16.692 16.7607L28.172 10.2055L16.6545 3.60675L5.17444 10.1604L16.692 16.7607ZM15.7448 18.0936V29.4743L4.35968 22.9042V11.5234L15.7448 18.0936ZM28.9656 11.5234V22.9042L17.5805 29.4743V18.0936L28.9656 11.5234Z" fill="#99CFFF"/>
</g>
<path d="M40.1886 11.595H34.6884V8.35498H49.6671V11.595H44.1669V25.5369H40.1886V11.595ZM63.1351 18.9832C63.1351 19.0323 63.1105 19.3759 63.0613 20.0141H53.0675C53.2477 20.8323 53.673 21.4787 54.3444 21.9532C55.0154 22.4279 55.8503 22.665 56.8491 22.665C57.5365 22.665 58.142 22.5668 58.666 22.3706C59.2063 22.1578 59.7057 21.8305 60.1641 21.3887L62.2019 23.5979C60.958 25.0213 59.1408 25.7331 56.7508 25.7331C55.2612 25.7331 53.9433 25.4468 52.7975 24.8743C51.6513 24.285 50.7676 23.475 50.1453 22.4443C49.5234 21.4132 49.2121 20.2432 49.2121 18.9341C49.2121 17.6414 49.5152 16.4796 50.1207 15.4487C50.743 14.4014 51.5861 13.5914 52.65 13.0187C53.7303 12.4295 54.9335 12.135 56.2596 12.135C57.5529 12.135 58.7233 12.4132 59.7709 12.9696C60.8188 13.5259 61.6373 14.3277 62.2264 15.375C62.8323 16.4059 63.1351 17.6087 63.1351 18.9832ZM56.2842 15.0314C55.4165 15.0314 54.6881 15.2768 54.0986 15.7677C53.5095 16.2587 53.1494 16.9296 53.0183 17.7805H59.5255C59.3944 16.9459 59.0343 16.2832 58.4452 15.7923C57.8557 15.285 57.1355 15.0314 56.2842 15.0314ZM73.715 12.135C75.352 12.135 76.6699 12.6259 77.6683 13.6077C78.6834 14.5896 79.191 16.0459 79.191 17.9769V25.5369H75.3602V18.5659C75.3602 17.5187 75.1312 16.7414 74.6728 16.2341C74.2144 15.7105 73.5511 15.4487 72.6838 15.4487C71.7178 15.4487 70.9485 15.7514 70.3754 16.3569C69.8026 16.9459 69.5159 17.8296 69.5159 19.0077V25.5369H65.6855V12.3314H69.3442V13.8778C69.8518 13.3214 70.4819 12.8959 71.2349 12.6014C71.9878 12.2905 72.8145 12.135 73.715 12.135ZM87.1075 25.7331C86.0108 25.7331 84.9387 25.6024 83.8908 25.3404C82.8432 25.0623 82.0083 24.7187 81.3861 24.3096L82.663 21.5605C83.2525 21.9369 83.9645 22.2478 84.7994 22.4931C85.6343 22.7224 86.4528 22.837 87.255 22.837C88.8756 22.837 89.6859 22.4361 89.6859 21.6341C89.6859 21.2578 89.4651 20.9878 89.0231 20.8241C88.581 20.6605 87.9014 20.5214 86.985 20.4069C85.9043 20.2432 85.0124 20.0551 84.3082 19.8423C83.6044 19.6296 82.9904 19.2532 82.4667 18.7132C81.9592 18.1732 81.7056 17.4041 81.7056 16.4059C81.7056 15.5714 81.9428 14.835 82.4176 14.1968C82.9088 13.5423 83.6126 13.035 84.5294 12.675C85.4623 12.315 86.5593 12.135 87.8199 12.135C88.7527 12.135 89.6777 12.2414 90.5946 12.4541C91.5274 12.6505 92.2971 12.9287 92.9026 13.2886L91.6257 16.0132C90.4635 15.3587 89.1947 15.0314 87.8199 15.0314C87.0013 15.0314 86.3873 15.1459 85.978 15.375C85.5688 15.6041 85.3643 15.8987 85.3643 16.2587C85.3643 16.6678 85.5851 16.9541 86.0272 17.1178C86.4692 17.2814 87.173 17.4368 88.139 17.5841C89.2193 17.7641 90.1034 17.9605 90.7908 18.1732C91.4786 18.3696 92.0759 18.7378 92.5835 19.2778C93.091 19.8177 93.3447 20.5705 93.3447 21.5359C93.3447 22.3542 93.0992 23.0823 92.6081 23.7204C92.1169 24.3587 91.3967 24.8579 90.4471 25.2179C89.5139 25.5615 88.4008 25.7331 87.1075 25.7331ZM101.994 25.7331C100.603 25.7331 99.3504 25.4468 98.2373 24.8743C97.1406 24.285 96.2811 23.475 95.6589 22.4443C95.037 21.4132 94.726 20.2432 94.726 18.9341C94.726 17.625 95.037 16.455 95.6589 15.4241C96.2811 14.3932 97.1406 13.5914 98.2373 13.0187C99.3504 12.4295 100.603 12.135 101.994 12.135C103.386 12.135 104.63 12.4295 105.727 13.0187C106.824 13.5914 107.683 14.3932 108.305 15.4241C108.927 16.455 109.238 17.625 109.238 18.9341C109.238 20.2432 108.927 21.4132 108.305 22.4443C107.683 23.475 106.824 24.285 105.727 24.8743C104.63 25.4468 103.386 25.7331 101.994 25.7331ZM101.994 22.5913C102.976 22.5913 103.779 22.2641 104.401 21.6096C105.039 20.9387 105.358 20.0469 105.358 18.9341C105.358 17.8214 105.039 16.9377 104.401 16.2832C103.779 15.6123 102.976 15.2768 101.994 15.2768C101.012 15.2768 100.202 15.6123 99.5634 16.2832C98.9248 16.9377 98.6056 17.8214 98.6056 18.9341C98.6056 20.0469 98.9248 20.9387 99.5634 21.6096C100.202 22.2641 101.012 22.5913 101.994 22.5913ZM115.457 14.0741C115.916 13.4359 116.53 12.9532 117.299 12.6259C118.085 12.2986 118.985 12.135 120 12.135V15.6696C119.574 15.6368 119.288 15.6205 119.141 15.6205C118.044 15.6205 117.184 15.9314 116.562 16.5532C115.94 17.1587 115.629 18.075 115.629 19.3023V25.5369H111.798V12.3314H115.457V14.0741Z" fill="#1360A5"/>
<defs>
<filter id="filter0_i_177_198" x="4.35968" y="3.60675" width="24.606" height="25.8676" filterUnits="userSpaceOnUse" color-interpolation-filters="sRGB">
<feFlood flood-opacity="0" result="BackgroundImageFix"/>
<feBlend mode="normal" in="SourceGraphic" in2="BackgroundImageFix" result="shape"/>
<feColorMatrix in="SourceAlpha" type="matrix" values="0 0 0 0 0 0 0 0 0 0 0 0 0 0 0 0 0 0 127 0" result="hardAlpha"/>
<feOffset/>
<feGaussianBlur stdDeviation="3.08313"/>
<feComposite in2="hardAlpha" operator="arithmetic" k2="-1" k3="1"/>
<feColorMatrix type="matrix" values="0 0 0 0 0 0 0 0 0 0 0 0 0 0 0 0 0 0 0.1 0"/>
<feBlend mode="normal" in2="shape" result="effect1_innerShadow_177_198"/>
</filter>
</defs>
</svg>
